<?xml version="1.0" standalone="no"?>
<!DOCTYPE svg PUBLIC "-//W3C//DTD SVG 20010904//EN"
 "http://www.w3.org/TR/2001/REC-SVG-20010904/DTD/svg10.dtd">
<svg version="1.0" xmlns="http://www.w3.org/2000/svg"
 width="165.000000pt" height="165.000000pt" viewBox="0 0 165.000000 165.000000"
 preserveAspectRatio="xMidYMid meet">

<g transform="translate(0.000000,165.000000) scale(0.100000,-0.100000)"
fill="#000000" stroke="none">
<path d="M793 1469 c-81 -14 -129 -41 -253 -145 -127 -107 -141 -123 -173
-191 -21 -45 -22 -64 -25 -318 -2 -179 0 -290 8 -330 24 -123 96 -216 198
-257 53 -20 76 -22 313 -26 l255 -4 105 87 c57 48 110 94 117 103 8 11 12 56
12 138 0 162 12 154 -223 154 -104 0 -186 4 -198 10 -17 10 -19 23 -19 155 l0
145 104 0 104 0 108 91 c60 51 112 97 116 103 4 6 8 68 8 138 0 120 -1 128
-22 142 -19 14 -59 16 -253 15 -126 -1 -254 -5 -282 -10z m525 -15 c21 -14 22
-22 22 -138 0 -88 -4 -127 -13 -134 -7 -7 -89 -12 -206 -14 -253 -4 -233 19
-229 -261 3 -193 4 -210 22 -223 15 -11 60 -14 201 -14 236 0 225 8 225 -149
0 -91 -3 -121 -14 -131 -11 -8 -84 -11 -278 -8 -307 5 -341 12 -420 88 -76 73
-80 99 -76 477 l3 318 30 53 c44 81 117 124 239 142 28 4 146 8 261 9 176 1
214 -2 233 -15z"/>
<path d="M815 1308 c-38 -13 -63 -35 -84 -73 -13 -25 -17 -71 -19 -282 -4
-286 3 -345 47 -387 42 -40 80 -46 271 -44 l175 2 -185 6 c-102 3 -196 11
-210 17 -14 6 -36 23 -50 38 l-25 27 -3 296 c-2 281 -1 299 17 329 37 59 66
67 271 74 l185 5 -180 1 c-103 1 -193 -3 -210 -9z"/>
</g>
</svg>
